<svg version="1.1" id="Layer_1" xmlns="http://www.w3.org/2000/svg" xmlns:xlink="http://www.w3.org/1999/xlink" x="0px" y="0px"
	 width="100%" viewBox="0 0 400 400" enable-background="new 0 0 400 400" xml:space="preserve">
<path fill="#000000" opacity="1.000000" stroke="none" 
	d="
M26.000000,1.000000 
	C150.965210,1.000000 275.930420,1.000000 400.947815,1.000000 
	C400.947815,134.261398 400.947815,267.522827 400.947815,400.892151 
	C267.775757,400.892151 134.551422,400.892151 1.000000,400.892151 
	C1.000000,275.310883 1.000000,149.621490 1.322359,23.333771 
	C6.605893,20.080177 11.095522,15.989611 17.484503,20.157101 
	C19.919783,21.745619 22.107071,19.313320 21.752697,16.552225 
	C21.144358,11.812365 23.376919,8.205057 25.673649,4.570027 
	C26.463778,3.319496 27.034706,2.301441 26.000000,1.000000 
M101.120811,252.327530 
	C102.273262,252.496857 103.429314,252.831955 104.577553,252.807037 
	C109.804543,252.693649 112.528320,255.058487 113.918335,260.255798 
	C115.951836,267.859161 119.577316,274.903107 124.623741,280.995239 
	C133.562851,291.786682 145.135086,296.652283 157.925735,284.175995 
	C158.879044,283.246124 159.841568,282.323090 160.750839,281.351074 
	C172.361786,268.938995 180.830399,254.417801 188.816116,239.567719 
	C189.630814,238.052734 189.919647,235.950394 192.298889,235.768906 
	C194.174896,237.178467 193.337967,239.160217 193.309006,240.865051 
	C192.958008,261.524841 192.701950,282.176727 193.989975,302.824188 
	C194.376740,309.023956 198.671143,307.520325 202.293625,307.763306 
	C206.078812,308.017151 207.555679,306.426086 207.764404,302.549835 
	C208.902634,281.412354 209.355698,260.281464 208.106995,239.135178 
	C208.029648,237.825226 207.776840,236.418747 209.594025,235.514496 
	C212.939423,237.418335 213.629593,241.273697 215.366669,244.313705 
	C223.728378,258.947174 232.070724,273.616028 244.795059,285.037659 
	C255.160690,294.342010 264.906189,293.792786 274.646179,283.756836 
	C280.690460,277.528900 284.873016,270.010223 287.194122,261.826874 
	C288.983795,255.517029 292.417145,253.552307 298.552185,252.511002 
	C330.042145,247.166199 349.206329,217.988586 341.711639,187.535706 
	C337.059113,168.631210 317.936646,151.682571 297.806000,149.433289 
	C291.941620,148.778030 289.120911,146.604645 287.511841,140.970215 
	C285.453125,133.761002 281.913483,127.072021 277.208130,121.115059 
	C266.870850,108.028023 255.189255,107.111832 243.186264,118.555412 
	C240.421021,121.191788 237.833817,124.049187 235.417313,127.010986 
	C226.528961,137.905090 219.550552,150.027496 212.905609,162.362625 
	C212.054062,163.943329 211.813782,166.407623 208.867981,166.152527 
	C206.869705,163.129822 208.734589,159.990784 208.724411,156.975693 
	C208.661469,138.319580 209.087753,119.664818 207.767197,101.021576 
	C207.457214,96.645363 206.456970,94.124039 201.460693,94.228424 
	C195.092667,94.361481 194.491302,94.626984 194.053085,100.696716 
	C192.611160,120.668259 193.008026,140.662430 193.291199,160.657303 
	C193.316971,162.476913 194.215607,164.642654 192.209473,166.171478 
	C189.786789,165.587982 189.456970,163.371796 188.524918,161.721664 
	C179.424530,145.610184 170.665237,129.226440 156.529999,116.739807 
	C146.554398,107.927681 136.842453,108.497429 127.379730,117.990334 
	C121.105392,124.284676 116.954094,131.958557 114.539925,140.299759 
	C112.745781,146.498703 109.551117,148.651093 103.242676,149.509521 
	C73.246582,153.591309 52.378838,183.593277 59.575592,212.402039 
	C64.912025,233.763916 79.280792,246.534714 101.120811,252.327530 
z"/>
<path fill="#000000" opacity="1.000000" stroke="none" 
	d="
M280.240051,209.913391 
	C279.617981,216.526733 279.039978,222.657089 278.376221,228.778137 
	C277.736877,234.673492 276.936707,235.175415 271.563385,232.790848 
	C255.245071,225.549118 239.867722,216.524200 224.365158,207.740280 
	C222.047592,206.427124 219.740753,205.090805 217.478088,203.686020 
	C214.886917,202.077301 214.238739,200.203552 217.269989,198.439819 
	C235.405182,187.887848 253.496826,177.251572 272.687836,168.661850 
	C276.244080,167.070129 277.844482,168.222122 278.363342,172.056488 
	C280.042725,184.467896 280.593079,196.920685 280.240051,209.913391 
z"/>
<path fill="#000000" opacity="1.000000" stroke="none" 
	d="
M151.206635,179.708923 
	C162.122620,185.801819 172.735657,191.685684 183.277557,197.694321 
	C187.792664,200.267838 187.865677,201.733734 183.590164,204.155960 
	C166.240845,213.985062 149.111832,224.231155 130.907761,232.469666 
	C124.811760,235.228500 123.955559,234.921341 123.175011,228.605621 
	C120.861481,209.885925 120.680565,191.143784 123.421303,172.444519 
	C124.187935,167.214066 124.995743,166.821625 129.885818,169.144241 
	C136.938644,172.494064 143.883789,176.070633 151.206635,179.708923 
z"/>
<path fill="#000000" opacity="1.000000" stroke="none" 
	d="
M74.844116,204.592407 
	C74.301826,183.947617 89.971504,165.210266 107.446472,166.390045 
	C104.406624,189.404984 104.115211,212.483459 107.522346,235.472351 
	C93.214333,236.778290 78.952415,223.065262 74.844116,204.592407 
z"/>
<path fill="#000000" opacity="1.000000" stroke="none" 
	d="
M303.821655,167.891739 
	C316.890930,173.856766 324.708435,183.440811 326.878906,197.426346 
	C329.602539,214.976273 312.075684,236.278275 294.271484,235.731659 
	C297.397644,212.677963 297.678375,189.600967 294.091003,166.617111 
	C298.061523,165.214813 300.685974,166.994400 303.821655,167.891739 
z"/>
<path fill="#000000" opacity="1.000000" stroke="none" 
	d="
M148.551727,159.497101 
	C143.171936,157.172531 138.228058,154.722794 133.052811,152.947388 
	C128.804108,151.489822 128.141891,149.300705 129.813614,145.446945 
	C131.931732,140.564102 133.669952,135.507385 137.137344,131.339554 
	C141.334808,126.294113 144.152588,126.082603 148.594940,130.895187 
	C157.319427,140.346786 164.214584,151.166519 171.269165,161.854355 
	C173.284363,164.907379 175.183899,168.037964 177.088318,171.162338 
	C177.932922,172.548004 179.093460,173.937225 177.334763,176.420044 
	C167.931122,170.791061 158.820709,164.484665 148.551727,159.497101 
z"/>
<path fill="#000000" opacity="1.000000" stroke="none" 
	d="
M130.298050,257.480499 
	C127.735008,252.743073 128.923279,250.365295 133.799240,248.759949 
	C147.809631,244.147186 160.244568,236.393982 172.549088,228.447556 
	C174.152451,227.412079 175.492493,225.615219 177.796890,226.301041 
	C179.065018,227.849243 178.196777,229.181381 177.412781,230.436737 
	C168.958328,243.974304 160.377838,257.434204 149.945007,269.573425 
	C144.077469,276.400635 140.699066,276.094147 135.745377,268.544983 
	C133.549942,265.199280 131.815155,261.606262 130.298050,257.480499 
z"/>
<path fill="#000000" opacity="1.000000" stroke="none" 
	d="
M229.300568,173.398895 
	C227.290939,174.352280 226.073547,176.462982 223.762451,175.579910 
	C222.649704,173.912048 223.646469,172.593353 224.403320,171.387375 
	C232.806320,157.997482 241.329010,144.686188 251.504593,132.534195 
	C252.566757,131.265717 253.752380,130.061874 255.043427,129.031998 
	C257.602966,126.990211 260.204010,126.909805 262.612549,129.360092 
	C267.916382,134.755844 270.501190,141.623199 272.740784,148.607376 
	C273.751404,151.758972 270.666473,152.039383 268.859619,152.690063 
	C254.832062,157.741623 242.001053,165.046432 229.300568,173.398895 
z"/>
<path fill="#000000" opacity="1.000000" stroke="none" 
	d="
M261.760254,273.179871 
	C257.327118,275.923187 254.857864,273.025208 252.546829,270.454376 
	C244.188904,261.156799 237.376846,250.712036 230.600372,240.257202 
	C227.848038,236.010864 224.623871,231.997131 222.960831,227.172424 
	C225.330688,225.253922 226.764038,226.922928 228.147186,227.843735 
	C241.180359,236.520477 254.664413,244.333572 269.525635,249.491913 
	C272.713684,250.598480 273.672882,252.191223 272.242371,255.452591 
	C269.509003,261.684387 267.320892,268.192841 261.760254,273.179871 
z"/>
</svg>